<?xml version="1.0" encoding="iso-8859-1"?>
<!-- Generator: Adobe Illustrator 19.0.0, SVG Export Plug-In . SVG Version: 6.00 Build 0)  -->
<svg version="1.1" id="Layer_1" xmlns="http://www.w3.org/2000/svg" xmlns:xlink="http://www.w3.org/1999/xlink" x="0px" y="0px"
	 viewBox="0 0 496.004 496.004" style="enable-background:new 0 0 496.004 496.004;" xml:space="preserve">
<g>
	<g>
		<path d="M228.86,313.534l-0.4-4.2c-0.544-5.592-5.376-9.984-11.148-9.984l-5.448,0.072c-2.316-7.144-5.928-13.896-10.6-19.808
			l3.164-4.544c3.208-4.604,2.296-11.256-2.028-14.832l-3.248-2.684c-4.18-3.456-11.156-3.076-14.952,0.816l-3.916,4.016
			c-6.716-3.448-13.884-5.636-21.368-6.524l-0.992-5.556c-0.996-5.512-6.26-9.588-11.932-9.044l-4.184,0.4
			c-5.588,0.532-10.076,5.532-10,11.14l0.076,5.648c-7.18,2.28-13.796,5.788-19.744,10.444l-4.608-3.2
			c-4.512-3.144-11.356-2.196-14.832,2.032l-2.676,3.248c-3.584,4.332-3.22,11.036,0.804,14.94l3.968,3.868
			c-3.464,6.68-5.736,14-6.664,21.456l-5.364,0.96c-5.52,0.992-9.58,6.34-9.04,11.92l0.4,4.2c0.536,5.604,5.372,9.992,11.14,9.988
			l5.336-0.068c2.28,7.22,5.884,14.056,10.56,20.032l-3.008,4.316c-3.212,4.608-2.296,11.26,2.04,14.824l3.244,2.688
			c4.18,3.46,11.152,3.08,14.952-0.816l3.608-3.7c6.832,3.564,14.128,5.812,21.76,6.704l0.904,5.056
			c0.92,5.184,5.616,9.096,10.92,9.096c0.332,0,0.668-0.012,1.008-0.044l4.18-0.4c5.584-0.536,10.072-5.528,10.004-11.14
			l-0.068-5.14c7.324-2.328,14.056-5.916,20.092-10.708l4.252,2.964c1.82,1.256,3.984,1.928,6.256,1.928
			c3.372,0,6.5-1.448,8.58-3.972l2.672-3.24c3.584-4.332,3.216-11.044-0.808-14.956l-3.768-3.668
			c3.464-6.752,5.704-14.148,6.576-21.672l5.248-0.94C225.328,324.458,229.392,319.118,228.86,313.534z M154.408,351.582
			c-18.176,1.74-33.896-11.512-35.604-29.396c-1.708-17.92,11.48-33.9,29.4-35.608c1.056-0.1,2.108-0.152,3.148-0.152
			c16.892,0,30.852,12.708,32.464,29.548C185.524,333.898,172.332,349.874,154.408,351.582z"/>
	</g>
</g>
<g>
	<g>
		<path d="M438.124,253.03l-0.588-6.208c-0.7-7.356-7.044-13.116-14.62-13.116l-9.452,0.128c-3.476-11.3-9.184-21.956-16.668-31.136
			l5.492-7.88c4.204-6.048,3.004-14.772-2.676-19.452l-4.808-3.972c-5.48-4.528-14.648-4.024-19.616,1.06l-6.764,6.948
			c-10.512-5.584-21.784-9.032-33.6-10.256l-1.72-9.596c-1.292-7.232-8.248-12.592-15.652-11.868l-6.204,0.588
			c-7.324,0.704-13.208,7.256-13.12,14.624l0.128,9.744c-11.36,3.44-21.776,8.952-31.044,16.432l-7.96-5.544
			c-2.376-1.656-5.212-2.52-8.196-2.52c-4.432,0-8.536,1.892-11.256,5.192l-3.98,4.812c-4.684,5.684-4.208,14.484,1.064,19.608
			l6.868,6.7c-5.604,10.42-9.192,21.968-10.468,33.724l-9.308,1.664c-7.248,1.304-12.568,8.328-11.864,15.644l0.588,6.212
			c0.7,7.356,7.044,13.12,14.616,13.12h0.004l9.292-0.124c3.408,11.392,9.084,22.168,16.588,31.472l-5.236,7.524
			c-4.212,6.044-3.02,14.768,2.664,19.468l4.812,3.976c5.484,4.524,14.648,4.028,19.616-1.064l6.316-6.5
			c10.568,5.688,22.268,9.296,34.168,10.532l1.588,8.872c1.228,6.8,7.388,11.936,14.336,11.936c0.432,0,0.872-0.024,1.312-0.068
			l6.208-0.592c7.332-0.7,13.22-7.252,13.12-14.62l-0.124-9c11.448-3.472,22.252-9.232,31.564-16.82l7.44,5.18
			c2.384,1.656,5.216,2.532,8.204,2.532c4.428,0,8.536-1.896,11.256-5.204l3.968-4.8c4.696-5.672,4.224-14.476-1.064-19.612
			l-6.572-6.404c5.596-10.544,9.132-22.196,10.328-34.044l9.144-1.64C433.496,267.382,438.824,260.358,438.124,253.03z
			 M373.556,301.018c-10.676,12.928-25.744,20.928-42.428,22.524c-2.008,0.188-4.044,0.288-6.048,0.288
			c-32.484,0-59.316-24.42-62.412-56.804c-1.592-16.692,3.408-33,14.084-45.932c10.672-12.924,25.744-20.92,42.432-22.52
			c2.012-0.188,4.044-0.288,6.048-0.288c32.484,0,59.308,24.42,62.404,56.808C389.228,271.778,384.228,288.09,373.556,301.018z"/>
	</g>
</g>
<g>
	<g>
		<path d="M454.18,60.066H42.152C19.004,60.066,0,77.33,0,100.47v325.328c0,4.284,3.64,10.14,7.92,10.14h480.5
			c4.276,0,7.584-5.856,7.584-10.14V100.47C496,77.33,477.332,60.066,454.18,60.066z M80.732,87.458
			c2.908-2.904,8.096-2.904,10.968,0c1.472,1.472,2.284,3.444,2.284,5.5c0,2.016-0.816,3.992-2.284,5.46
			c-1.436,1.436-3.452,2.248-5.464,2.248c-2.056,0-4.068-0.816-5.5-2.248c-1.436-1.472-2.248-3.444-2.248-5.46
			C78.484,90.906,79.296,88.894,80.732,87.458z M56.708,87.458c2.868-2.864,8.06-2.904,10.928,0c1.472,1.432,2.284,3.444,2.284,5.46
			c0,2.056-0.812,4.072-2.284,5.5c-1.432,1.436-3.416,2.288-5.464,2.288c-2.056,0-4.028-0.852-5.464-2.288
			c-1.472-1.428-2.288-3.444-2.288-5.5C54.42,90.906,55.236,88.894,56.708,87.458z M32.952,87.458c2.868-2.904,8.06-2.904,10.968,0
			c1.432,1.432,2.248,3.444,2.248,5.46c0,2.056-0.816,4.028-2.248,5.5c-1.472,1.436-3.452,2.248-5.5,2.248
			c-2.016,0-4.032-0.816-5.464-2.248c-1.432-1.428-2.284-3.444-2.284-5.5C30.668,90.906,31.52,88.894,32.952,87.458z M480.5,420.438
			h-465v-294.5h465V420.438z"/>
	</g>
</g>
<g>
</g>
<g>
</g>
<g>
</g>
<g>
</g>
<g>
</g>
<g>
</g>
<g>
</g>
<g>
</g>
<g>
</g>
<g>
</g>
<g>
</g>
<g>
</g>
<g>
</g>
<g>
</g>
<g>
</g>
</svg>
